<svg xmlns="http://www.w3.org/2000/svg" width="23" height="29"><path fill="#F38181" paint-order="stroke fill markers" fill-rule="evenodd" d="M10.0508 17.8537c-.2092.8333-.4196 1.7064-.638 2.5605-.2152.8416-.4044 1.6959-.7175 2.4695-.519 1.2816-1.1785 2.5195-2.0436 3.5215-.5746.667-.4523.4005-.6255.3647-.132-.0275-.1436-.1568-.1695-.3445-.1407-1.0186-.0448-2.1952.0077-3.3396.0595-1.3036.3336-2.3878.5881-3.4709.4845-2.0634.9464-4.087 1.4352-6.1637.0327-.1382.1202-.3666.09-.4452-.2216-.577-.3654-1.095-.4286-1.7006-.073-.6955-.017-1.344.1394-1.943.276-1.058.9127-1.9956 1.8939-2.3383.6237-.2164 1.3149-.1186 1.7344.1323.4324.2581.7288.6664.8673 1.2452.1475.6156.0387 1.3511-.08 1.8919-.267 1.2182-.6178 2.133-.9369 3.3092-.1581.5835-.337 1.1825-.1894 1.8119.1359.5781.4369.9764.8475 1.275.4254.31.9292.4797 1.6246.4554 1.2277-.0429 2.081-.828 2.6516-1.5682.912-1.1845 1.4648-2.7837 1.6745-4.6861.0675-.6134.117-1.3184.0697-2.0141-.0872-1.2839-.489-2.3162-1.1264-3.1167-.6064-.7624-1.4663-1.3692-2.5118-1.7107-1.037-.3386-2.4727-.4513-3.748-.233-2.317.397-3.9516 1.7141-4.9142 3.5328-.5043.9518-.8372 2.0473-.8372 3.41 0 1.0507.2593 1.865.678 2.4998.1326.2013.328.3672.4584.5972.1846.326-.0285.8112-.1198 1.164-.1098.425-.1215 1.0122-.6179 1.0223-.2053.0036-.4636-.1467-.638-.2432-1.3045-.7212-2.0973-2.0331-2.4222-3.7343-.1974-1.0335-.197-2.2393 0-3.2382.1905-.9662.5449-1.858.937-2.581.8143-1.5026 2.007-2.7041 3.459-3.5625 1.116-.6605 2.3754-1.123 3.9072-1.3459.5085-.0745 1.0344-.105 1.605-.1317 1.6679-.0787 3.1846.2992 4.3261.8094 1.2052.5388 2.1666 1.2565 2.9802 2.1458.8375.9148 1.4475 1.9795 1.8344 3.3093.2011.6919.3974 1.4322.3974 2.287 0 .8577-.1813 1.613-.3078 2.3681-.474 2.8282-1.819 5.1409-3.8377 6.4575-.4896.3188-1.0818.6134-1.7544.8094-.667.1944-1.4279.3398-2.2428.2832-.7916-.0542-1.4387-.2695-1.9835-.577-.5401-.3052-.9941-.6789-1.316-1.2445z"/></svg>