<svg xmlns="http://www.w3.org/2000/svg" width="28" height="24"><path fill="#F38181" paint-order="stroke fill markers" fill-rule="evenodd" d="M18.5126 1.601c2.0344-.0364 3.1171.7052 4.1513 1.6475.878-.075 2.0188-.5657 2.6908-.9072.2178-.1187.4357-.2384.6533-.357-.3837 1.037-.9042 1.8489-1.704 2.4652-.1776.1364-.354.3219-.5766.4089v.0125c1.1398-.0113 2.0798-.5257 2.9727-.8047v.0131c-.469.7451-1.1038 1.5015-1.781 2.0439l-.82.6508c.0148 1.2071-.018 2.3586-.2436 3.3732-1.3116 5.8948-4.787 9.8972-10.2887 11.6115-1.9755.6157-5.168.8684-7.4314.3064-1.1225-.2783-2.1363-.5931-3.0879-1.0086-.5285-.2313-1.018-.4815-1.4862-.7671L1.1 20.0087c.5105.0154 1.1077.1562 1.6785.0638.5163-.0835 1.0227-.0615 1.499-.1657 1.1882-.2612 2.243-.6057 3.152-1.1373.4406-.258 1.1091-.5602 1.4222-.9322-.59.01-1.1248-.127-1.5631-.2813-1.699-.5996-2.6879-1.703-3.3314-3.36.5149.0567 1.998.1908 2.3448-.102-.6482-.0357-1.2715-.4112-1.7169-.6896-1.3667-.8553-2.4813-2.2892-2.473-4.4965.1794.0853.3589.1705.5382.255.3433.145.6924.2224 1.102.3071.173.0357.5188.137.7175.0632h-.0256c-.2645-.307-.6953-.5126-.961-.8428-.8769-1.0896-1.6987-2.7669-1.1787-4.7648.1318-.5067.3409-.9537.5637-1.3668.0085.0043.017.0084.0256.0126.102.214.3297.3706.474.5495.4478.5549 1.0002 1.0544 1.5632 1.4943 1.9179 1.5003 3.6452 2.4218 6.4192 3.1042.7037.1735 1.517.3058 2.3576.307-.236-.6878-.1602-1.8.0256-2.4658.4675-1.6732 1.4828-2.879 2.9726-3.5251.3562-.155.7512-.2676 1.166-.3583.2135-.0255.427-.0512.6406-.0762z"/></svg>