<svg aria-hidden="true" style="position:absolute;width:0;height:0" xmlns="http://www.w3.org/2000/svg" overflow="hidden"><defs><symbol id="facebook" viewBox="0 0 17 32"><path d="M14.443 2.426v4.547s-3.352-.334-4.191.95c-.459.702-.187 2.758-.227 4.234h4.446c-.376 1.726-.645 2.896-.921 4.39h-3.549v14.128H3.842V16.602H1.221v-4.446h2.592c.133-3.25.183-6.471 1.797-8.11 1.815-1.843 3.545-1.622 8.834-1.622z"/></symbol><symbol id="instagram" viewBox="0 0 32 32"><path d="M27.086 30.628H5.143a3.657 3.657 0 0 1-3.657-3.657V5.028a3.657 3.657 0 0 1 3.657-3.657h21.943a3.657 3.657 0 0 1 3.657 3.657v21.943a3.657 3.657 0 0 1-3.657 3.657zM16.114 10.331a5.665 5.665 0 0 0-5.141 3.292h-.005l-.025.063c-.054.12-.101.243-.147.367-.022.06-.045.118-.065.178a5.715 5.715 0 0 0-.109.388c-.015.061-.034.121-.047.183-.03.138-.05.279-.07.42-.008.057-.02.113-.026.171a5.668 5.668 0 0 0 5.636 6.275 5.668 5.668 0 0 0 5.636-6.275c-.006-.058-.018-.114-.026-.171a5.746 5.746 0 0 0-.07-.42c-.013-.062-.032-.122-.047-.183a5.557 5.557 0 0 0-.109-.388c-.02-.06-.043-.118-.065-.178a5.847 5.847 0 0 0-.147-.367l-.025-.063h-.005a5.666 5.666 0 0 0-5.141-3.292zm11.337-4.206c0-.808-.655-1.463-1.463-1.463h-2.926c-.808 0-1.463.655-1.463 1.463v2.926c0 .808.655 1.463 1.463 1.463h2.926c.808 0 1.463-.655 1.463-1.463V6.125zm0 7.497h-2.697a8.96 8.96 0 1 1-17.28 0H4.777v12.251c0 .809.655 1.463 1.463 1.463h19.749c.808 0 1.463-.655 1.463-1.463V13.622z"/></symbol><symbol id="pinterest" viewBox="0 0 25 32"><path d="M11.091 19.701c-.231.919-.463 1.883-.704 2.825-.238.929-.446 1.871-.792 2.725-.573 1.414-1.3 2.78-2.255 3.886-.634.736-.499.442-.69.402-.146-.03-.158-.173-.187-.38-.155-1.124-.05-2.422.008-3.685.066-1.438.368-2.635.649-3.83.535-2.277 1.044-4.51 1.584-6.801.036-.152.133-.405.099-.491-.244-.637-.403-1.208-.473-1.876a5.968 5.968 0 0 1 .154-2.144c.305-1.167 1.007-2.202 2.09-2.58.688-.239 1.451-.131 1.914.146.477.285.804.735.957 1.374.163.679.043 1.491-.088 2.088-.295 1.344-.682 2.354-1.034 3.652-.175.644-.372 1.305-.209 1.999.15.638.482 1.077.935 1.407.469.342 1.025.529 1.793.503 1.355-.047 2.296-.914 2.926-1.73 1.006-1.307 1.616-3.072 1.848-5.171.075-.677.129-1.455.077-2.222-.096-1.417-.54-2.556-1.243-3.439-.669-.841-1.618-1.511-2.772-1.888-1.144-.374-2.729-.498-4.136-.257-2.557.438-4.36 1.891-5.423 3.898a7.815 7.815 0 0 0-.924 3.763c0 1.159.286 2.058.748 2.758.146.222.362.405.506.659.204.36-.031.895-.132 1.284-.121.469-.134 1.117-.682 1.128-.227.004-.512-.162-.704-.268-1.439-.796-2.314-2.243-2.673-4.121a9.864 9.864 0 0 1 0-3.573c.21-1.066.601-2.05 1.034-2.848.898-1.658 2.215-2.984 3.817-3.931 1.232-.729 2.621-1.239 4.311-1.485a18.003 18.003 0 0 1 1.771-.145c1.84-.087 3.514.33 4.774.893a9.752 9.752 0 0 1 3.288 2.368c.924 1.009 1.597 2.184 2.024 3.652.222.763.439 1.58.439 2.524 0 .946-.2 1.78-.34 2.613-.523 3.121-2.007 5.673-4.235 7.125a7.306 7.306 0 0 1-1.936.893c-.736.215-1.576.375-2.475.313a5.07 5.07 0 0 1-2.189-.637c-.596-.337-1.097-.749-1.452-1.373z"/></symbol><symbol id="twitter" viewBox="0 0 37 32"><path d="M24.683 2.135c2.713-.049 4.156.94 5.535 2.197 1.171-.1 2.692-.754 3.588-1.21l.871-.476c-.512 1.383-1.206 2.465-2.272 3.287-.237.182-.472.429-.769.545v.017c1.52-.015 2.773-.701 3.963-1.073v.018c-.625.993-1.472 2.002-2.375 2.725l-1.093.868c.02 1.609-.024 3.145-.325 4.497-1.749 7.86-6.383 13.196-13.718 15.482-2.634.821-6.891 1.158-9.909.409-1.497-.371-2.848-.791-4.117-1.345a16.344 16.344 0 0 1-1.982-1.023l-.615-.374c.681.021 1.477.208 2.238.085.688-.111 1.364-.082 1.999-.221 1.584-.348 2.991-.808 4.203-1.516.587-.344 1.479-.747 1.896-1.243-.787.014-1.5-.169-2.084-.375-2.265-.799-3.584-2.271-4.442-4.48.686.076 2.664.254 3.126-.136-.864-.048-1.695-.548-2.289-.92-1.822-1.14-3.308-3.052-3.297-5.995l.717.34c.458.193.923.296 1.469.409.231.048.692.183.957.084h-.034c-.353-.409-.927-.684-1.281-1.124-1.169-1.453-2.265-3.689-1.572-6.353.176-.676.455-1.272.752-1.822l.034.017c.136.285.44.494.632.733.597.74 1.334 1.406 2.084 1.992 2.557 2 4.86 3.229 8.559 4.139.938.231 2.023.408 3.143.409-.315-.917-.214-2.4.034-3.288.623-2.231 1.977-3.839 3.963-4.7a8.407 8.407 0 0 1 1.555-.478l.854-.102z"/></symbol></defs></svg>